<svg xmlns="http://www.w3.org/2000/svg" width="202" height="35" fill="none"><path fill="#5061FC" d="M62.384 27.082c-2.319 0-4.31-.398-5.972-1.194-1.662-.82-3.02-1.885-4.074-3.197-1.054-1.335-1.839-2.763-2.354-4.285-.492-1.546-.737-3.044-.737-4.496v-.773c0-1.592.257-3.161.772-4.707a12.833 12.833 0 0 1 2.354-4.25c1.077-1.265 2.423-2.271 4.04-3.02C58.05.385 59.982 0 62.207 0c2.318 0 4.367.433 6.147 1.3 1.78.866 3.196 2.072 4.25 3.618 1.077 1.522 1.71 3.313 1.897 5.374h-5.796c-.164-1.03-.538-1.909-1.124-2.635-.585-.726-1.346-1.288-2.283-1.686-.913-.398-1.944-.597-3.091-.597-1.148 0-2.166.2-3.056.597a6.19 6.19 0 0 0-2.248 1.686c-.585.726-1.042 1.593-1.37 2.6-.304.983-.457 2.084-.457 3.302 0 1.194.153 2.294.457 3.301a8.18 8.18 0 0 0 1.405 2.6 6.443 6.443 0 0 0 2.318 1.686c.914.374 1.956.562 3.127.562 1.78 0 3.278-.433 4.496-1.3 1.24-.866 1.99-2.06 2.248-3.583h5.76a11.422 11.422 0 0 1-1.896 5.164c-1.03 1.545-2.448 2.786-4.25 3.723-1.78.913-3.9 1.37-6.358 1.37ZM86.016 27.082c-1.686 0-3.184-.258-4.496-.773-1.311-.538-2.423-1.264-3.337-2.178a9.495 9.495 0 0 1-2.037-3.126 10.204 10.204 0 0 1-.703-3.758v-.808c0-1.335.235-2.6.703-3.794a9.504 9.504 0 0 1 2.108-3.196c.936-.913 2.06-1.628 3.372-2.143 1.311-.538 2.775-.808 4.39-.808 1.663 0 3.138.27 4.426.808 1.312.515 2.424 1.23 3.337 2.143a9.504 9.504 0 0 1 2.108 3.196 9.866 9.866 0 0 1 .737 3.794v.808c0 1.311-.234 2.564-.702 3.758a9.237 9.237 0 0 1-2.073 3.126c-.89.914-1.99 1.64-3.301 2.178-1.312.515-2.822.773-4.532.773Zm0-4.742c1.1 0 2.014-.234 2.74-.703.726-.468 1.276-1.124 1.651-1.967.398-.843.597-1.78.597-2.81 0-1.1-.199-2.06-.597-2.88a4.783 4.783 0 0 0-1.721-2.002c-.726-.492-1.616-.738-2.67-.738-1.03 0-1.92.246-2.67.738a4.783 4.783 0 0 0-1.72 2.002c-.375.82-.562 1.78-.562 2.88 0 1.03.187 1.967.562 2.81.374.843.936 1.5 1.686 1.967.749.469 1.65.703 2.704.703ZM98.79 26.415V7.165h4.461v8.255h-.316c0-1.967.246-3.606.738-4.917.515-1.312 1.288-2.295 2.318-2.951 1.03-.656 2.283-.983 3.759-.983h.245c2.248 0 3.958.737 5.129 2.212 1.194 1.452 1.791 3.665 1.791 6.64v10.994h-5.62v-11.31c0-1.031-.304-1.874-.913-2.53-.609-.656-1.429-.983-2.459-.983-1.054 0-1.909.339-2.564 1.018-.632.656-.949 1.522-.949 2.6v11.204h-5.62ZM128.694 26.66c-1.943 0-3.512-.234-4.706-.702-1.195-.492-2.073-1.3-2.635-2.424-.539-1.147-.808-2.693-.808-4.636V1.967h5.234v17.141c0 .914.234 1.616.702 2.108.492.468 1.183.702 2.073.702h2.845v4.742h-2.705ZM117.63 11.275v-4.11h13.769v4.11H117.63ZM144.98 26.415v-5.69h-.948v-6.183c0-.983-.235-1.721-.703-2.213-.468-.492-1.218-.738-2.248-.738a104.8 104.8 0 0 0-4.636.14c-.89.048-1.698.095-2.424.142V7.13a86.386 86.386 0 0 1 1.897-.141 72.03 72.03 0 0 1 4.425-.14c1.968 0 3.618.28 4.953.843 1.358.562 2.389 1.416 3.091 2.564.703 1.124 1.054 2.576 1.054 4.355v11.803h-4.461Zm-6.147.491c-1.382 0-2.599-.246-3.653-.737-1.03-.492-1.838-1.195-2.424-2.108-.585-.937-.878-2.049-.878-3.337 0-1.405.363-2.552 1.089-3.442.726-.913 1.745-1.58 3.056-2.002 1.311-.445 2.822-.668 4.531-.668h4.11v3.126h-4.145c-.983 0-1.744.246-2.283.738-.515.469-.773 1.112-.773 1.932 0 .773.258 1.405.773 1.897.539.468 1.3.702 2.283.702.632 0 1.194-.105 1.686-.316.515-.234.937-.62 1.265-1.159.328-.538.515-1.288.562-2.248l1.334 1.405c-.117 1.335-.444 2.459-.983 3.372a5.246 5.246 0 0 1-2.178 2.108c-.913.491-2.037.737-3.372.737ZM161.094 27.082c-1.663 0-3.115-.27-4.356-.808-1.217-.562-2.236-1.311-3.056-2.248a9.314 9.314 0 0 1-1.826-3.161 11.59 11.59 0 0 1-.597-3.688v-.668c0-1.311.211-2.564.632-3.758a9.648 9.648 0 0 1 1.862-3.232c.819-.937 1.838-1.674 3.056-2.213 1.241-.538 2.657-.808 4.25-.808 1.733 0 3.267.34 4.601 1.019 1.335.656 2.401 1.58 3.197 2.775.796 1.194 1.241 2.564 1.335 4.11h-5.515c-.094-.867-.445-1.593-1.054-2.178-.585-.61-1.44-.914-2.564-.914-.937 0-1.721.235-2.354.703-.608.468-1.065 1.112-1.369 1.932-.305.82-.457 1.791-.457 2.915 0 1.03.14 1.967.421 2.81.281.82.726 1.464 1.335 1.932.632.445 1.452.668 2.459.668.749 0 1.382-.13 1.897-.387.538-.28.96-.655 1.264-1.124a3.73 3.73 0 0 0 .597-1.686h5.48c-.07 1.593-.515 2.998-1.335 4.215-.819 1.195-1.908 2.131-3.266 2.81-1.359.656-2.904.984-4.637.984ZM180.916 26.66c-1.943 0-3.512-.234-4.706-.702-1.195-.492-2.073-1.3-2.635-2.424-.538-1.147-.808-2.693-.808-4.636V1.967h5.234v17.141c0 .914.234 1.616.702 2.108.492.468 1.183.702 2.073.702h2.845v4.742h-2.705Zm-11.064-15.385v-4.11h13.769v4.11h-13.769ZM192.813 27.012c-2.74 0-4.882-.562-6.428-1.686-1.546-1.124-2.365-2.705-2.459-4.742h4.988c.094.608.457 1.159 1.089 1.65.656.469 1.627.703 2.915.703.984 0 1.792-.164 2.424-.492.656-.35.984-.843.984-1.475 0-.562-.246-1.007-.738-1.335-.492-.351-1.37-.597-2.634-.737l-1.511-.14c-2.318-.235-4.063-.879-5.234-1.933-1.147-1.054-1.721-2.4-1.721-4.04 0-1.357.34-2.493 1.019-3.406.679-.914 1.616-1.605 2.81-2.073 1.218-.468 2.599-.702 4.145-.702 2.482 0 4.484.55 6.006 1.65 1.522 1.078 2.319 2.647 2.389 4.707h-4.988c-.094-.632-.422-1.159-.984-1.58-.562-.445-1.393-.668-2.493-.668-.867 0-1.558.164-2.073.492-.515.328-.773.773-.773 1.335 0 .539.223.948.668 1.23.445.28 1.171.48 2.178.596l1.51.14c2.365.258 4.203.914 5.515 1.968 1.311 1.054 1.967 2.47 1.967 4.25 0 1.288-.352 2.412-1.054 3.372-.703.937-1.698 1.663-2.986 2.178-1.288.492-2.798.738-4.531.738Z"/><path fill="#222" d="M0 26.415V.773h7.938l5.866 14.401h.668L20.267.773h8.08v25.642h-5.69V4.53l.807.07-6.78 16.615h-5.479L4.391 4.6l.878-.07v21.883H0ZM31.814 34.037V29.26h4.004c.609 0 1.124-.082 1.545-.246.422-.14.761-.387 1.019-.738.258-.351.468-.831.632-1.44l4.742-19.67h5.34L43.72 27.96c-.375 1.499-.901 2.693-1.58 3.583-.656.89-1.546 1.522-2.67 1.897-1.1.398-2.506.597-4.215.597h-3.442Zm6.041-8.044v-4.39h4.075v4.39h-4.075Zm-2.318 0L29.636 7.166h5.655l5.585 18.827h-5.34Z"/></svg>
